<svg width="178" height="82" viewBox="0 0 178 82" fill="none" xmlns="http://www.w3.org/2000/svg">
<path id="Vector" d="M169.27 63.4452H162.981C159.769 63.4452 157.913 61.9072 157.913 59.3287V59.2835C157.913 56.5694 159.904 55.1218 163.026 55.1671H169.27V63.4461V63.4452ZM149.138 59.1026C149.138 63.7628 151.626 67.2912 156.105 68.9649L148.052 80.5009H158.231L165.063 70.4124H169.27V80.5009H178.001V47.5656H163.388C154.837 47.5656 149.137 51.4106 149.137 59.0564V59.1016L149.138 59.1026ZM130.808 63.989V55.0314H135.378C138.77 55.0314 140.807 56.5242 140.807 59.4654V59.5559C140.807 62.2248 138.771 63.9899 135.468 63.9899H130.808V63.989ZM122.076 80.5018H130.808V71.0014H135.558C143.566 71.0014 149.538 66.9755 149.538 59.194V59.1035C149.538 51.9101 144.29 47.5675 136.101 47.5675H122.076V80.5028V80.5018ZM102.706 73.218C97.503 73.218 93.9746 68.9658 93.9746 64.0342V63.9437C93.9746 59.0121 97.4577 54.8504 102.616 54.8504C107.773 54.8504 111.347 59.1035 111.347 64.0342V64.1247C111.347 69.0563 107.954 73.218 102.706 73.218ZM102.616 81.1351C112.794 81.1351 120.35 73.4894 120.35 64.0342V63.9437C120.35 54.5338 112.84 46.9333 102.706 46.9333C92.5723 46.9333 84.9718 54.579 84.9718 64.0342V64.1247C84.9718 73.5346 92.4818 81.1351 102.616 81.1351ZM48.6361 80.5018H57.2318V61.1391L65.737 74.2141H65.918L74.5137 61.0487V80.5018H83.2451V47.5666H73.9709L65.918 60.5511L57.9103 47.5666H48.6361V80.5018ZM16.1917 80.5018L34.4235 47.5666H24.6517L17.594 61.1844L10.0387 47.5666H0.0859375L12.7981 69.3277L6.41889 80.5018H16.1907H16.1917ZM124.248 20.4031L128.093 10.8123L131.893 20.4031H124.247H124.248ZM109.951 33.5686H119.09L121.578 27.3704H134.562L137.05 33.5686H146.37L132.345 0.407117H123.975L109.95 33.5686H109.951ZM75.1085 33.5686H83.7042V14.2059L92.2094 27.2808H92.3904L100.986 14.1154V33.5686H109.717V0.633304H100.443L92.3904 13.6178L84.3827 0.633304H75.1085V33.5686ZM55.7381 26.2847C50.535 26.2847 47.0067 22.0326 47.0067 17.1009V17.0105C47.0067 12.0788 50.4898 7.91717 55.6476 7.91717C60.8054 7.91717 64.379 12.1703 64.379 17.1009V17.1914C64.379 22.123 60.9864 26.2847 55.7381 26.2847ZM55.6476 34.2019C65.8265 34.2019 73.3818 26.5561 73.3818 17.1009V17.0105C73.3818 7.60052 65.8718 0 55.7381 0C45.6044 0 38.0039 7.64575 38.0039 17.1009V17.1914C38.0039 26.6014 45.5139 34.2019 55.6476 34.2019ZM20.1714 9.45518L26.7315 26.1038H13.5209L20.1714 9.45518ZM0.718255 25.7871V40.5811H8.81638V33.5686H31.7084V40.5811H39.8065V25.7871H35.871L25.0136 0.407117H15.5131L4.61045 25.7871H0.720182H0.718255Z" fill="white"/>
</svg>
