<svg width="280" height="123" viewBox="0 0 280 123" fill="none" xmlns="http://www.w3.org/2000/svg">
<path d="M271.27 63.4452H264.981C261.769 63.4452 259.913 61.9072 259.913 59.3287V59.2835C259.913 56.5694 261.904 55.1218 265.026 55.1671H271.27V63.4461V63.4452ZM251.138 59.1026C251.138 63.7628 253.626 67.2912 258.105 68.9649L250.052 80.5009H260.231L267.063 70.4124H271.27V80.5009H280.001V47.5656H265.388C256.837 47.5656 251.137 51.4106 251.137 59.0564V59.1016L251.138 59.1026ZM232.808 63.989V55.0314H237.378C240.77 55.0314 242.807 56.5242 242.807 59.4654V59.5559C242.807 62.2248 240.771 63.9899 237.468 63.9899H232.808V63.989ZM224.076 80.5018H232.808V71.0014H237.558C245.566 71.0014 251.538 66.9755 251.538 59.194V59.1035C251.538 51.9101 246.29 47.5675 238.101 47.5675H224.076V80.5028V80.5018ZM204.706 73.218C199.503 73.218 195.975 68.9658 195.975 64.0342V63.9437C195.975 59.0121 199.458 54.8504 204.616 54.8504C209.773 54.8504 213.347 59.1035 213.347 64.0342V64.1247C213.347 69.0563 209.954 73.218 204.706 73.218ZM204.616 81.1351C214.794 81.1351 222.35 73.4894 222.35 64.0342V63.9437C222.35 54.5338 214.84 46.9333 204.706 46.9333C194.572 46.9333 186.972 54.579 186.972 64.0342V64.1247C186.972 73.5346 194.482 81.1351 204.616 81.1351ZM150.636 80.5018H159.232V61.1391L167.737 74.2141H167.918L176.514 61.0487V80.5018H185.245V47.5666H175.971L167.918 60.5511L159.91 47.5666H150.636V80.5018ZM118.192 80.5018L136.424 47.5666H126.652L119.594 61.1844L112.039 47.5666H102.086L114.798 69.3277L108.419 80.5018H118.191H118.192ZM226.248 20.4031L230.093 10.8123L233.893 20.4031H226.247H226.248ZM211.951 33.5686H221.09L223.578 27.3704H236.562L239.05 33.5686H248.37L234.345 0.407117H225.975L211.95 33.5686H211.951ZM177.109 33.5686H185.704V14.2059L194.209 27.2808H194.39L202.986 14.1154V33.5686H211.717V0.633304H202.443L194.39 13.6178L186.383 0.633304H177.109V33.5686ZM157.738 26.2847C152.535 26.2847 149.007 22.0326 149.007 17.1009V17.0105C149.007 12.0788 152.49 7.91717 157.648 7.91717C162.805 7.91717 166.379 12.1703 166.379 17.1009V17.1914C166.379 22.123 162.986 26.2847 157.738 26.2847ZM157.648 34.2019C167.827 34.2019 175.382 26.5561 175.382 17.1009V17.0105C175.382 7.60052 167.872 0 157.738 0C147.604 0 140.004 7.64575 140.004 17.1009V17.1914C140.004 26.6014 147.514 34.2019 157.648 34.2019ZM122.171 9.45518L128.732 26.1038H115.521L122.171 9.45518ZM102.718 25.7871V40.5811H110.816V33.5686H133.708V40.5811H141.807V25.7871H137.871L127.014 0.407117H117.513L106.61 25.7871H102.72H102.718Z" fill="white"/>
<path d="M196.576 118.551C198.452 118.551 199.527 117.774 200.364 116.675L198.668 115.397C198.107 116.03 197.569 116.448 196.649 116.448C195.359 116.448 194.486 115.384 194.486 114.035V114.011C194.486 112.709 195.358 111.622 196.649 111.622C197.497 111.622 198.082 112.028 198.608 112.638L200.304 111.228C199.527 110.236 198.417 109.519 196.673 109.519C194.021 109.519 192.097 111.514 192.097 114.035V114.059C192.097 116.639 194.08 118.551 196.576 118.551ZM180.938 118.383H183.244L183.232 115.015H183.722L186.505 118.383H189.384L185.537 113.904L189.192 109.688H186.421L183.708 113.009H183.231L183.243 109.688H180.937V118.384L180.938 118.383ZM169.625 118.383H176.589V116.412H171.907V114.931H176.064V113.079H171.907V111.658H176.529V109.687H169.625V118.383ZM162.026 109.627H159.924L156.28 118.383H158.789L160.94 112.828L163.102 118.383H165.658L162.027 109.627H162.026ZM144.584 118.383H146.891V111.741H150.02V118.383H152.326V109.687H144.584V118.383ZM130.787 118.383H133.056V113.271L135.302 116.723H135.35L137.619 113.247V118.383H139.924V109.687H137.476L135.35 113.115L133.235 109.687H130.787V118.383ZM121.779 116.46C120.406 116.46 119.473 115.337 119.473 114.035V114.011C119.473 112.709 120.393 111.61 121.755 111.61C123.117 111.61 124.06 112.733 124.06 114.035V114.059C124.06 115.361 123.164 116.46 121.778 116.46H121.779ZM121.755 118.551C124.443 118.551 126.437 116.532 126.437 114.035V114.011C126.437 111.526 124.455 109.519 121.778 109.519C119.102 109.519 117.096 111.538 117.096 114.035V114.059C117.096 116.544 119.078 118.551 121.755 118.551ZM105.938 118.383H108.244L108.232 115.015H108.722L111.506 118.383H114.385L110.538 113.904L114.193 109.688H111.421L108.709 113.009H108.232L108.243 109.688H105.937V118.384L105.938 118.383ZM257.922 101.229V92.5318H255.771L252.116 97.4538V92.5318H249.811V101.229H251.83L255.617 96.1275V101.229H257.923H257.922ZM253.871 91.9466C255.245 91.9466 256.153 91.3133 256.297 90.0708H254.911C254.756 90.4413 254.457 90.6444 253.871 90.6444C253.286 90.6444 252.988 90.4413 252.832 90.0708H251.446C251.59 91.3133 252.497 91.9466 253.871 91.9466ZM245.151 101.229V92.5318H243.001L239.345 97.4538V92.5318H237.039V101.229H239.058L242.846 96.1275V101.229H245.152H245.151ZM224.89 101.229H227.196L227.184 97.86H227.674L230.458 101.229H233.337L229.49 96.7493L233.145 92.5328H230.373L227.661 95.8542H227.184L227.195 92.5328H224.889V101.23L224.89 101.229ZM216.957 101.396C218.833 101.396 219.908 100.619 220.745 99.5202L219.049 98.2421C218.488 98.8753 217.95 99.2931 217.03 99.2931C215.739 99.2931 214.867 98.2296 214.867 96.8802V96.8561C214.867 95.5539 215.739 94.4673 217.03 94.4673C217.878 94.4673 218.463 94.8735 218.989 95.4827L220.685 94.0727C219.908 93.0814 218.798 92.3643 217.054 92.3643C214.402 92.3643 212.478 94.3595 212.478 96.8802V96.9042C212.478 99.4846 214.461 101.396 216.957 101.396ZM201.522 101.229H208.487V99.2574H203.804V97.7762H207.961V95.9245H203.804V94.5029H208.427V92.5318H201.522V101.229ZM194.546 101.229H196.863V92.5318H194.546V96.4981C194.08 96.6059 193.601 96.6656 193.124 96.6656C192.12 96.6656 191.678 96.2709 191.678 95.2796V92.5318H189.361V95.5895C189.361 97.6444 190.568 98.755 192.802 98.755C193.34 98.755 193.96 98.6838 194.546 98.576V101.228V101.229ZM184.869 101.229V92.5318H182.719L179.064 97.4538V92.5318H176.757V101.229H178.777L182.564 96.1275V101.229H184.87H184.869ZM167.679 101.229H169.996V94.5751H172.601V92.5328H165.075V94.5751H167.68V101.229H167.679ZM157.643 101.396C159.519 101.396 160.594 100.619 161.43 99.5202L159.735 98.2421C159.173 98.8753 158.635 99.2931 157.715 99.2931C156.426 99.2931 155.553 98.2296 155.553 96.8802V96.8561C155.553 95.5539 156.425 94.4673 157.715 94.4673C158.563 94.4673 159.148 94.8735 159.675 95.4827L161.371 94.0727C160.594 93.0814 159.483 92.3643 157.739 92.3643C155.088 92.3643 153.164 94.3595 153.164 96.8802V96.9042C153.164 99.4846 155.147 101.396 157.643 101.396ZM148.814 101.229V92.5318H146.664L143.009 97.4538V92.5318H140.703V101.229H142.722L146.509 96.1275V101.229H148.815H148.814ZM131.647 96.8686V94.5029H132.854C133.75 94.5029 134.287 94.8975 134.287 95.6733V95.6973C134.287 96.4018 133.749 96.8677 132.877 96.8677H131.647V96.8686ZM129.341 101.229H131.647V98.7194H132.901C135.016 98.7194 136.592 97.6559 136.592 95.6011V95.577C136.592 93.6781 135.206 92.5308 133.045 92.5308H129.341V101.228V101.229ZM120.68 101.229L125.494 92.5318H122.914L121.05 96.1275L119.055 92.5318H116.427L119.784 98.2777L118.1 101.229H120.68ZM108.041 101.229H110.359V94.5751H112.963V92.5328H105.438V94.5751H108.042V101.229H108.041Z" fill="white"/>
<path d="M77.8912 0.0702993L66.7412 27.6351C64.7759 32.4926 63.9857 37.4146 64.3572 42.2298C64.7277 47.0286 66.2571 51.7543 68.9337 56.2355L72.4976 62.2027C75.8759 67.86 77.924 73.7926 78.6285 79.8936C79.3301 85.9735 78.6872 92.2073 76.6862 98.4854L69.0905 122.321H56.2485L65.0222 94.7886C66.4775 90.2227 66.9452 85.6963 66.4361 81.2853C65.9289 76.8956 64.4428 72.6049 61.9857 68.4904L58.4217 62.5232C54.7393 56.3577 52.6316 49.8187 52.1166 43.1412C51.6027 36.4801 52.6797 29.7121 55.3649 23.074L64.67 0.0693359H77.8912V0.0702993Z" fill="white"/>
<path d="M51.8951 0.0702993L40.7451 27.6351C38.7797 32.4926 37.9896 37.4146 38.3611 42.2298C38.7316 47.0286 40.261 51.7543 42.9376 56.2355L46.5015 62.2027C49.8798 67.86 51.9279 73.7926 52.6324 79.8936C53.334 85.9735 52.6911 92.2073 50.6902 98.4854L43.0944 122.321H30.2524L39.0261 94.7886C40.4814 90.2227 40.9491 85.6963 40.44 81.2853C39.9328 76.8956 38.4467 72.6049 35.9896 68.4904L32.4256 62.5232C28.7432 56.3577 26.6355 49.8187 26.1205 43.1412C25.6066 36.4801 26.6836 29.7121 29.3688 23.074L38.6739 0.0693359H51.8951V0.0702993Z" fill="white"/>
<path d="M25.8991 0.0702993L14.749 27.6351C12.7837 32.4926 11.9935 37.4146 12.365 42.2298C12.7355 47.0286 14.2649 51.7543 16.9415 56.2355L20.5054 62.2027C23.8837 67.86 25.9318 73.7926 26.6363 79.8936C27.3379 85.9735 26.695 92.2073 24.6941 98.4854L17.0983 122.321H4.25628L13.03 94.7886C14.4853 90.2227 14.953 85.6963 14.4439 81.2853C13.9367 76.8956 12.4506 72.6049 9.99349 68.4904L6.42951 62.5232C2.74715 56.3577 0.639365 49.8187 0.124451 43.1412C-0.389501 36.4801 0.687488 29.7121 3.37274 23.074L12.6778 0.0693359H25.8991V0.0702993Z" fill="white"/>
</svg>
